<svg xmlns="http://www.w3.org/2000/svg" width="24" height="24" fill="none"><path fill="#000" d="M2 6.156v11.689A4.156 4.156 0 0 0 6.156 22h11.689A4.156 4.156 0 0 0 22 17.845V6.155A4.156 4.156 0 0 0 17.845 2H6.155A4.155 4.155 0 0 0 2 6.156Zm12.118 11.51a6.066 6.066 0 0 1-7.785-7.785 5.738 5.738 0 0 1 3.548-3.548 6.066 6.066 0 0 1 7.786 7.786 5.737 5.737 0 0 1-3.549 3.548ZM18.94 5.953a.782.782 0 0 1-1.41.316.783.783 0 0 1-.032-.83.772.772 0 0 1 .472-.363.783.783 0 0 1 .97.877Z"></path><path fill="#000" d="M12 7.141A4.864 4.864 0 0 0 7.141 12c0 2.68 2.18 4.859 4.859 4.859 2.68 0 4.859-2.18 4.859-4.859 0-2.68-2.18-4.859-4.859-4.859Z"></path></svg>