<svg xmlns="http://www.w3.org/2000/svg" width="24" height="24" fill="none"><path fill="#000" d="M18.25 2H5.75C3.68 2 2 3.68 2 5.75v12.5C2 20.32 3.68 22 5.75 22h12.5c2.07 0 3.75-1.68 3.75-3.75V5.75C22 3.68 20.32 2 18.25 2ZM8.184 18.977H5.077l-.018-9.303h3.107l.018 9.303ZM6.552 8.457h-.018c-1.015 0-1.67-.7-1.67-1.571 0-.893.676-1.569 1.71-1.569 1.033 0 1.667.676 1.688 1.569 0 .871-.658 1.571-1.71 1.571Zm12.404 10.52h-3.134v-5.054c0-1.223-.324-2.055-1.418-2.055-.835 0-1.286.562-1.503 1.106-.08.195-.102.462-.102.736v5.267H9.65l-.018-9.303h3.15l.017 1.313c.403-.622 1.073-1.502 2.678-1.502 1.989 0 3.476 1.298 3.476 4.09v5.402h.003Z"></path></svg>