<svg xmlns="http://www.w3.org/2000/svg" width="24" height="24" fill="none"><path fill="#000" d="M12.008 10.287A1.712 1.712 0 0 0 13.72 8.56a1.715 1.715 0 0 0-1.721-1.72 1.718 1.718 0 0 0-1.726 1.74c.008.954.777 1.71 1.735 1.707Z"></path><path fill="#000" d="M12 2C6.477 2 2 6.477 2 12s4.477 10 10 10 10-4.477 10-10S17.523 2 12 2Zm.014 3.041c1.948.005 3.511 1.599 3.502 3.568-.01 1.924-1.6 3.483-3.544 3.476-1.925-.006-3.503-1.602-3.492-3.53a3.528 3.528 0 0 1 3.534-3.514Zm3.946 8.428c-.431.443-.95.763-1.525.986-.545.21-1.141.317-1.732.388.09.097.132.144.187.2.802.806 1.607 1.607 2.405 2.415.273.275.33.617.18.936-.164.35-.531.58-.89.555-.229-.015-.407-.129-.564-.288-.605-.608-1.221-1.206-1.814-1.826-.172-.18-.255-.146-.408.011-.608.627-1.226 1.243-1.848 1.856-.28.276-.611.325-.936.168-.344-.167-.563-.518-.546-.872.012-.239.13-.422.293-.585.794-.791 1.584-1.585 2.375-2.379.053-.053.102-.108.178-.19-1.079-.113-2.052-.378-2.885-1.03-.103-.08-.21-.159-.304-.25-.365-.35-.401-.751-.113-1.164.247-.354.661-.448 1.092-.245.083.04.163.089.239.141 1.552 1.067 3.684 1.096 5.242.048.155-.118.32-.215.511-.264a.8.8 0 0 1 .918.366c.228.372.225.735-.056 1.024Z"></path><path fill="#000" d="M12.008 10.287A1.712 1.712 0 0 0 13.72 8.56a1.715 1.715 0 0 0-1.721-1.72 1.718 1.718 0 0 0-1.726 1.74c.008.954.777 1.71 1.735 1.707Z"></path><path fill="#000" d="M12 2C6.477 2 2 6.477 2 12s4.477 10 10 10 10-4.477 10-10S17.523 2 12 2Zm.014 3.041c1.948.005 3.511 1.599 3.502 3.568-.01 1.924-1.6 3.483-3.544 3.476-1.925-.006-3.503-1.602-3.492-3.53a3.528 3.528 0 0 1 3.534-3.514Zm3.946 8.428c-.431.443-.95.763-1.525.986-.545.21-1.141.317-1.732.388.09.097.132.144.187.2.802.806 1.607 1.607 2.405 2.415.273.275.33.617.18.936-.164.35-.531.58-.89.555-.229-.015-.407-.129-.564-.288-.605-.608-1.221-1.206-1.814-1.826-.172-.18-.255-.146-.408.011-.608.627-1.226 1.243-1.848 1.856-.28.276-.611.325-.936.168-.344-.167-.563-.518-.546-.872.012-.239.13-.422.293-.585.794-.791 1.584-1.585 2.375-2.379.053-.053.102-.108.178-.19-1.079-.113-2.052-.378-2.885-1.03-.103-.08-.21-.159-.304-.25-.365-.35-.401-.751-.113-1.164.247-.354.661-.448 1.092-.245.083.04.163.089.239.141 1.552 1.067 3.684 1.096 5.242.048.155-.118.32-.215.511-.264a.8.8 0 0 1 .918.366c.228.372.225.735-.056 1.024Z"></path></svg>