<svg width="24" height="24" viewBox="0 0 24 24" xmlns="http://www.w3.org/2000/svg"><path d="M19.5888 6.686C18.5902 6.47238 17.6858 5.94535 17.0077 5.18175C16.3295 4.41816 15.913 3.45791 15.8188 2.441V2H12.3738V15.672C12.3717 16.2773 12.18 16.8667 11.8256 17.3574C11.4712 17.848 10.972 18.2154 10.3981 18.4077C9.82418 18.6 9.20443 18.6077 8.62593 18.4297C8.04743 18.2516 7.53927 17.8968 7.17284 17.415C6.80072 16.9252 6.5943 16.3296 6.5835 15.7145C6.57271 15.0995 6.7581 14.497 7.11281 13.9944C7.46751 13.4918 7.97307 13.1153 8.55619 12.9194C9.1393 12.7235 9.76966 12.7185 10.3558 12.905V9.405C9.04869 9.2243 7.71775 9.45669 6.54919 10.0697C5.38062 10.6826 4.43288 11.6455 3.83852 12.8237C3.24416 14.0018 3.03291 15.3363 3.23432 16.6404C3.43573 17.9445 4.03973 19.1531 4.96184 20.097C5.8412 20.9968 6.96872 21.6141 8.20049 21.8701C9.43226 22.1262 10.7124 22.0094 11.8775 21.5346C13.0426 21.0599 14.0398 20.2487 14.7418 19.2047C15.4438 18.1606 15.8188 16.9311 15.8188 15.673V8.687C17.2111 9.68234 18.8804 10.216 20.5918 10.213V6.79C20.2548 6.79042 19.9186 6.75556 19.5888 6.686Z"></path></svg>